<?xml version="1.0"?>
<svg xmlns:rdf="http://www.w3.org/1999/02/22-rdf-syntax-ns#" xmlns="http://www.w3.org/2000/svg" xmlns:cc="http://creativecommons.org/ns#" xmlns:dc="http://purl.org/dc/elements/1.1/" id="svg3700" viewBox="0 0 79.125 49" version="1.1">
  <g id="layer1" transform="translate(-400.44 -622.16)">
    <path id="path5089" d="m400.94 622.65h78.125v48h-78.125z" style="color:#000000" stroke="#fff" fill="#2c5aa0"/>
    <path id="path5091" d="m400.94 661.46h78.125" stroke="#fff" stroke-width="1.875" fill="none"/>
    <path id="path5093" d="m478.6 653.25h-40.708c-1.0597 0-2.6011 0.45447-3.5636 1.4141l-3.1848 3.0163h-7.4847s-7.8285-0.90894-9.5897-7.4617l13.389-15.775c1.3661-1.6912 4.2104-2.4125 5.2289-2.4125h45.874" stroke="#fff" stroke-width="1.875" fill="none"/>
    <path id="path5095" d="m433.81 638.58h45.233v4.407h-48.888z" style="color:#000000" fill="#fff"/>
    <path id="path5097" d="m424.03 638.58h6.0507l-3.6839 4.407h-6.0338z" style="color:#000000" fill="#fff"/>
    <path id="path5099" d="m478.84 656.36h-40.219c-0.90384 0-3.3742 0.35432-3.3742 2.3 0 1.9458 2.1353 2.3007 3.3742 2.3007h40.326" stroke="#fff" stroke-width="1.875" fill="none"/>
  </g>
  <metadata>
    <rdf:RDF>
      <cc:Work>
        <dc:format>image/svg+xml</dc:format>
        <dc:type rdf:resource="http://purl.org/dc/dcmitype/StillImage"/>
        <cc:license rdf:resource="http://creativecommons.org/licenses/publicdomain/"/>
        <dc:publisher>
          <cc:Agent rdf:about="http://openclipart.org/">
            <dc:title>Openclipart</dc:title>
          </cc:Agent>
        </dc:publisher>
      </cc:Work>
      <cc:License rdf:about="http://creativecommons.org/licenses/publicdomain/">
        <cc:permits rdf:resource="http://creativecommons.org/ns#Reproduction"/>
        <cc:permits rdf:resource="http://creativecommons.org/ns#Distribution"/>
        <cc:permits rdf:resource="http://creativecommons.org/ns#DerivativeWorks"/>
      </cc:License>
    </rdf:RDF>
  </metadata>
</svg>
